<mxfile host="app.diagrams.net" modified="2023-08-14T07:48:54.358Z" agent="Mozilla/5.0 (Macintosh; Intel Mac OS X 10_15_7) AppleWebKit/537.36 (KHTML, like Gecko) Chrome/115.0.0.0 Safari/537.36" version="21.6.8" etag="wLjUUqo96u_jmzihlvZ6" type="github">
  <diagram name="第 1 页" id="zhBF9TMe9wGpLtexL3rU">
    <mxGraphModel>
      <root>
        <mxCell id="0" />
        <mxCell id="1" parent="0" />
      </root>
    </mxGraphModel>
  </diagram>
</mxfile>
